<svg width="36" height="33" viewBox="0 0 36 33" fill="none" xmlns="http://www.w3.org/2000/svg">
<path d="M19.3785 26.7212C19.0831 26.7212 18.7999 26.6036 18.5911 26.3944C18.3823 26.1851 18.2649 25.9014 18.2649 25.6055H16.0378C16.0378 26.4932 16.3898 27.3445 17.0163 27.9722C17.6428 28.5999 18.4925 28.9525 19.3785 28.9525C20.2645 28.9525 21.1142 28.5999 21.7407 27.9722C22.3672 27.3445 22.7191 26.4932 22.7191 25.6055H20.492C20.492 25.9014 20.3747 26.1851 20.1659 26.3944C19.957 26.6036 19.6738 26.7212 19.3785 26.7212Z" fill="#212529"/>
<path d="M11.5426 26.7212C11.2473 26.7212 10.964 26.6036 10.7552 26.3944C10.5464 26.1851 10.4291 25.9014 10.4291 25.6055H8.19153C8.19153 26.0457 8.27806 26.4815 8.44619 26.8882C8.61432 27.2949 8.86075 27.6644 9.1714 27.9757C9.48206 28.2869 9.85087 28.5338 10.2568 28.7023C10.6627 28.8707 11.0977 28.9574 11.537 28.9574C11.9764 28.9574 12.4114 28.8707 12.8173 28.7023C13.2232 28.5338 13.592 28.2869 13.9027 27.9757C14.2133 27.6644 14.4598 27.2949 14.6279 26.8882C14.796 26.4815 14.8825 26.0457 14.8825 25.6055H12.6555C12.6555 25.9012 12.5382 26.1849 12.3296 26.3941C12.1209 26.6033 11.8378 26.721 11.5426 26.7212Z" fill="#212529"/>
<path d="M26.0695 8.26204C26.0089 8.25168 25.9474 8.24655 25.8858 8.2467H8.06908C7.77375 8.2467 7.49052 8.36424 7.28169 8.57347C7.07286 8.78271 6.95554 9.06649 6.95554 9.36239C6.95554 9.65829 7.07286 9.94207 7.28169 10.1513C7.49052 10.3605 7.77375 10.4781 8.06908 10.4781H24.5711L24.2767 12.2478L22.7157 21.635H8.18949L4.40343 12.2478L2.14502 6.69728C2.02559 6.43616 1.81025 6.23125 1.54383 6.12521C1.2774 6.01916 0.980423 6.02016 0.71471 6.12798C0.448997 6.2358 0.235023 6.44214 0.117332 6.70405C-0.000360327 6.96595 -0.0127022 7.26325 0.082875 7.53405L3.68867 16.3989L6.14961 22.9341C6.33126 23.4843 6.70638 23.8664 7.24784 23.8664H23.6587C23.9224 23.8665 24.1776 23.7729 24.3788 23.6022C24.5801 23.4314 24.7143 23.1947 24.7577 22.9341L26.5351 12.2478L26.9847 9.54578C27.0332 9.25395 26.9641 8.95478 26.7924 8.71404C26.6208 8.4733 26.3608 8.31072 26.0695 8.26204Z" fill="#212529"/>
<circle cx="26" cy="9" r="9" fill="#DC323C"/>
<path d="M23.5189 11.11C23.5189 10.7233 23.5889 10.39 23.7289 10.11C23.8756 9.82333 24.1156 9.57 24.4489 9.35L26.9289 7.74C27.0622 7.65333 27.1656 7.54333 27.2389 7.41C27.3189 7.27667 27.3589 7.14 27.3589 7V6.68C27.3589 6.46667 27.2789 6.29333 27.1189 6.16C26.9656 6.02 26.7656 5.95 26.5189 5.95H25.5989C25.3056 5.95 25.0756 6.05667 24.9089 6.27C24.7422 6.47667 24.6589 6.76333 24.6589 7.13H23.4889C23.4889 6.44333 23.6756 5.90333 24.0489 5.51C24.4222 5.11667 24.9322 4.92 25.5789 4.92H26.5189C26.9122 4.92 27.2622 4.99333 27.5689 5.14C27.8756 5.28667 28.1122 5.49333 28.2789 5.76C28.4456 6.02667 28.5289 6.33333 28.5289 6.68V7C28.5289 7.33333 28.4556 7.62667 28.3089 7.88C28.1689 8.13333 27.9456 8.35333 27.6389 8.54L25.2289 10.07C25.0422 10.19 24.9056 10.32 24.8189 10.46C24.7389 10.5933 24.6989 10.7667 24.6989 10.98H28.5889V12H23.5189V11.11Z" fill="white"/>
</svg>
