<svg width="36" height="29" viewBox="0 0 36 29" fill="none" xmlns="http://www.w3.org/2000/svg">
<path d="M25.7442 8.10275C24.2909 6.75232 22.3676 6 20.3687 6C18.3697 6 16.4465 6.75232 14.9931 8.10275L14 9.0345L13.0069 8.10275C11.5572 6.74316 9.62821 5.98964 7.62554 6.00064C5.62664 5.9914 3.7019 6.74488 2.25576 8.10275C1.54386 8.75756 0.976298 9.54931 0.588263 10.4289C0.200228 11.3085 0 12.2571 0 13.216C0 14.1749 0.200228 15.1235 0.588263 16.0031C0.976298 16.8827 1.54386 17.6744 2.25576 18.3293L13.2147 28.6921C13.3222 28.7846 13.4428 28.8612 13.5727 28.9194C13.8471 29.0269 14.1529 29.0269 14.4273 28.9194C14.5572 28.8612 14.6778 28.7846 14.7853 28.6921L25.7442 18.3293C26.4561 17.6744 27.0237 16.8827 27.4117 16.0031C27.7998 15.1235 28 14.1749 28 13.216C28 12.2571 27.7998 11.3085 27.4117 10.4289C27.0237 9.54931 26.4561 8.75756 25.7442 8.10275ZM25.7442 13.1933C25.7475 13.8655 25.6121 14.5313 25.3461 15.1505C25.0801 15.7696 24.6891 16.3292 24.1968 16.7953L14 26.4536L3.81473 16.7953C3.31485 16.3331 2.91647 15.775 2.64415 15.1555C2.37183 14.536 2.23134 13.8682 2.23134 13.1933C2.23134 12.5183 2.37183 11.8505 2.64415 11.231C2.91647 10.6115 3.31485 10.0535 3.81473 9.59127C4.84037 8.62701 6.20703 8.09319 7.62554 8.10275C9.05112 8.09206 10.4254 8.62562 11.4595 9.59127L13.2147 11.2616C13.3222 11.3541 13.4428 11.4307 13.5727 11.4889C13.8471 11.5964 14.1529 11.5964 14.4273 11.4889C14.5572 11.4307 14.6778 11.3541 14.7853 11.2616L16.5521 9.59127C17.5777 8.62701 18.9444 8.09319 20.3629 8.10275C21.7885 8.09206 23.1628 8.62562 24.1968 9.59127C24.6933 10.0554 25.0886 10.6141 25.3586 11.2333C25.6286 11.8526 25.7676 12.5194 25.7673 13.1933H25.7442Z" fill="#212529"/>
<circle cx="27" cy="9" r="9" fill="#DD3842"/>
<path d="M24.5189 11.11C24.5189 10.7233 24.5889 10.39 24.7289 10.11C24.8756 9.82333 25.1156 9.57 25.4489 9.35L27.9289 7.74C28.0622 7.65333 28.1656 7.54333 28.2389 7.41C28.3189 7.27667 28.3589 7.14 28.3589 7V6.68C28.3589 6.46667 28.2789 6.29333 28.1189 6.16C27.9656 6.02 27.7656 5.95 27.5189 5.95H26.5989C26.3056 5.95 26.0756 6.05667 25.9089 6.27C25.7422 6.47667 25.6589 6.76333 25.6589 7.13H24.4889C24.4889 6.44333 24.6756 5.90333 25.0489 5.51C25.4222 5.11667 25.9322 4.92 26.5789 4.92H27.5189C27.9122 4.92 28.2622 4.99333 28.5689 5.14C28.8756 5.28667 29.1122 5.49333 29.2789 5.76C29.4456 6.02667 29.5289 6.33333 29.5289 6.68V7C29.5289 7.33333 29.4556 7.62667 29.3089 7.88C29.1689 8.13333 28.9456 8.35333 28.6389 8.54L26.2289 10.07C26.0422 10.19 25.9056 10.32 25.8189 10.46C25.7389 10.5933 25.6989 10.7667 25.6989 10.98H29.5889V12H24.5189V11.11Z" fill="white"/>
</svg>
